<?xml version="1.0" encoding="UTF-8"?> <svg xmlns="http://www.w3.org/2000/svg" width="96" height="96" viewBox="0 0 96 96" fill="none"> <g clip-path="url(#clip0)"> <path d="M48 96C47.5518 96 47.1006 95.9004 46.6874 95.6954C27.7086 86.4549 11.9994 76.4822 11.9994 47.9993V14.9989C11.9994 13.7362 12.7874 12.6111 13.974 12.1805L46.9745 0.180156C47.6366 -0.060052 48.3631 -0.060052 49.0252 0.180156L82.0257 12.1803C83.2123 12.6109 84.0004 13.736 84.0004 14.9987V47.9992C84.0004 76.482 68.2912 86.4548 49.3123 95.6952C48.8993 95.9004 48.4481 96 48 96ZM17.9995 17.0994V47.9993C17.9995 70.3796 28.1012 79.781 48 89.6543C67.8987 79.781 78.0004 70.3796 78.0004 47.9993V17.0994L48 6.19198L17.9995 17.0994Z" fill="#B6E800"></path> <path d="M45.8789 59.9994L31.7577 45.8782L35.9999 41.636L45.8789 51.515L64.758 32.6357L69.0002 36.878L45.8789 59.9994Z" fill="#B6E800"></path> </g> <defs> <clipPath id="clip0"> <rect width="96" height="96" fill="white"></rect> </clipPath> </defs> </svg> 