<?xml version="1.0" encoding="UTF-8"?> <svg xmlns="http://www.w3.org/2000/svg" width="96" height="96" viewBox="0 0 96 96" fill="none"> <path d="M59.2495 48.75C58.2145 48.75 57.3745 49.59 57.3745 50.625C57.3745 51.66 58.2145 52.5 59.2495 52.5C60.2845 52.5 61.1245 51.66 61.1245 50.625C61.1245 49.59 60.2845 48.75 59.2495 48.75Z" fill="#B6E800"></path> <path d="M0.467367 44.3621C0.472429 44.3679 0.476929 44.3745 0.482179 44.3801C0.482929 44.3809 0.483492 44.3818 0.484242 44.3827L46.6092 95.3828C46.9529 95.7628 47.4738 96 47.9999 96C48.5244 96 49.0443 95.7654 49.3906 95.3828L95.5156 44.3827C95.5164 44.382 95.5169 44.3811 95.5177 44.3801C95.5229 44.3743 95.5272 44.3679 95.5325 44.3621C96.1334 43.6785 96.1492 42.6744 95.6037 41.9749C95.5985 41.9681 95.5945 41.9604 95.5891 41.9537L80.5891 23.2037C80.2334 22.7589 79.6945 22.5 79.1249 22.5C71.4811 22.5 23.0945 22.5 16.8749 22.5C16.3053 22.5 15.7666 22.7589 15.4107 23.2037L0.410742 41.9537C0.405304 41.9604 0.401554 41.9679 0.396117 41.9749C-0.154946 42.6817 -0.126821 43.6862 0.467367 44.3621ZM37.8114 26.25H58.1883L67.1883 41.25H28.8114L37.8114 26.25ZM28.3764 45H67.6231L47.9997 89.4799L28.3764 45ZM71.722 45H89.9011L54.4087 84.2434L71.722 45ZM24.2776 45L41.5908 84.2434L6.09855 45H24.2776ZM90.2236 41.25H71.5614L62.5614 26.25H78.2236L90.2236 41.25ZM17.7759 26.25H33.4381L24.4381 41.25H5.77587L17.7759 26.25Z" fill="#B6E800"></path> <path d="M51.7495 48.75H37.8333C36.7977 48.75 35.9583 49.5894 35.9583 50.625C35.9583 51.6606 36.7977 52.5 37.8333 52.5H51.7495C52.7851 52.5 53.6245 51.6606 53.6245 50.625C53.6245 49.5894 52.7851 48.75 51.7495 48.75Z" fill="#B6E800"></path> <path d="M47.9995 15C49.0351 15 49.8745 14.1606 49.8745 13.125V1.875C49.8745 0.839438 49.0351 0 47.9995 0C46.9639 0 46.1245 0.839438 46.1245 1.875V13.125C46.1245 14.1606 46.9639 15 47.9995 15Z" fill="#B6E800"></path> <path d="M60.5757 14.451L68.0757 6.95102C68.8079 6.21884 68.8079 5.03159 68.0757 4.29921C67.3435 3.56684 66.1563 3.56702 65.4239 4.29921L57.9239 11.7992C57.1917 12.5314 57.1917 13.7186 57.9239 14.451C58.6561 15.1832 59.8433 15.1834 60.5757 14.451Z" fill="#B6E800"></path> <path d="M35.4237 14.451C36.1559 15.1831 37.3432 15.1831 38.0755 14.451C38.8077 13.7188 38.8077 12.5315 38.0755 11.7991L30.5755 4.29914C29.8433 3.56695 28.6561 3.56695 27.9237 4.29914C27.1913 5.03133 27.1915 6.21858 27.9237 6.95095L35.4237 14.451Z" fill="#B6E800"></path> </svg> 