<?xml version="1.0" encoding="UTF-8"?> <svg xmlns="http://www.w3.org/2000/svg" width="96" height="96" viewBox="0 0 96 96" fill="none"> <g clip-path="url(#clip0)"> <path d="M0 95.9998H96L87.211 79.1249H83.7608L95.9998 55.6261V16.875C95.9998 12.2226 92.2148 8.4375 87.5623 8.4375C82.9099 8.4375 79.1248 12.2226 79.1248 16.875V38.3587C76.1563 37.3143 72.7159 37.9764 70.3463 40.3462L49.2985 61.3941C48.8268 61.8659 48.3948 62.3669 47.9999 62.8908C47.605 62.3667 47.1728 61.8659 46.7011 61.394L25.6537 40.3462C23.2839 37.9766 19.8436 37.3143 16.875 38.3587V16.875C16.875 12.2226 13.0899 8.4375 8.43748 8.4375C3.78505 8.4375 0 12.2227 0 16.875V55.6259L12.239 79.1249H8.78905L0 95.9998ZM86.7281 90.3748H50.8124V84.7499H83.7985L86.7281 90.3748ZM53.2761 65.3712L74.3237 44.3238C75.4206 43.2273 77.2047 43.2273 78.3012 44.3238C78.8323 44.855 79.125 45.5613 79.125 46.3126C79.125 47.0639 78.8323 47.7701 78.3012 48.3014L57.2618 69.3404L61.2393 73.3178L82.2784 52.2787C83.85 50.7072 84.7234 48.6249 84.7474 46.4062C84.7498 46.4062 84.7498 16.875 84.7498 16.875C84.7498 15.3242 86.0115 14.0625 87.5623 14.0625C89.1131 14.0625 90.3748 15.3242 90.3748 16.875V54.2489L77.4186 79.1249H50.8124V71.3436C50.8124 69.0814 51.6875 66.9603 53.2761 65.3712ZM5.62499 54.2489V16.875C5.62499 15.3242 6.88667 14.0625 8.43748 14.0625C9.98829 14.0625 11.25 15.3242 11.25 16.875V46.4062C11.2796 48.5354 12.1003 50.6575 13.7212 52.2787L34.7606 73.3178L38.738 69.3404L17.6988 48.3012C16.6022 47.2046 16.6022 45.4203 17.6988 44.3238C18.7957 43.2273 20.58 43.2271 21.6765 44.3238L42.7237 65.3712C44.3124 66.9603 45.1874 69.0814 45.1874 71.3436V79.1249H18.5812L5.62499 54.2489ZM12.2015 84.7499H45.1874V90.3748H9.27186L12.2015 84.7499Z" fill="#B6E800"></path> <g clip-path="url(#clip1)"> <path d="M25.719 27.6315C25.7527 27.958 25.9812 28.2323 26.2956 28.3254C56.4941 37.2706 63.4616 25.7212 65.0556 20.3398C65.629 18.4038 65.7352 16.4683 65.3697 14.5877C65.3136 14.2969 65.1028 14.0601 64.8214 13.9699C64.5514 13.8984 64.2301 13.9488 64.0152 14.1543C60.9328 17.0737 52.5834 24.0597 41.6797 25.8557C41.2338 25.9267 40.8144 25.6281 40.7431 25.1889C40.6712 24.746 40.9713 24.3271 41.4125 24.2547C42.2348 24.119 43.0382 23.944 43.8318 23.7508C44.1348 23.6764 44.4329 23.5903 44.733 23.5083C45.1844 23.3847 45.6324 23.2551 46.0735 23.1148C46.512 22.9772 46.9478 22.8321 47.3791 22.6789C47.5136 22.6307 47.6438 22.5795 47.7772 22.5293C59.3618 18.2689 68.5018 8.70547 69.6653 4.77751C69.7926 4.34799 69.5472 3.89611 69.1177 3.76888C68.6882 3.64165 68.2363 3.887 68.1091 4.31653C67.7375 5.57086 66.1299 7.86061 63.6146 10.4148C61.8362 7.80079 58.981 5.84457 55.285 4.74975C45.2925 1.78984 40.3828 10.6784 37.7458 15.4546C34.1966 21.882 29.6781 24.9125 26.1394 26.8351C25.8494 26.9913 25.6854 27.305 25.719 27.6315Z" fill="#B6E800"></path> </g> </g> <defs> <clipPath id="clip0"> <rect width="96" height="96" fill="white"></rect> </clipPath> <clipPath id="clip1"> <rect width="35.7073" height="35.7073" fill="white" transform="translate(59.7544 38.2363) rotate(-163.5)"></rect> </clipPath> </defs> </svg> 