<?xml version="1.0" encoding="UTF-8"?> <svg xmlns="http://www.w3.org/2000/svg" width="96" height="96" viewBox="0 0 96 96" fill="none"> <path d="M96 59.4375V8.4375C96 3.78506 92.2149 0 87.5625 0L8.4375 0C3.78506 0 0 3.78506 0 8.4375L0 53.8125C0 54.7277 0 92.8418 0 93.1875C0 94.7408 1.25925 96 2.8125 96C4.54369 96 93.7845 96 96 96V90.375C96 85.8705 94.1651 81.6201 90.8336 78.4069C89.6919 77.3057 88.4256 76.3811 87.0724 75.6377C89.1041 73.6012 90.375 70.8519 90.375 67.875C90.375 67.7143 90.3692 67.5547 90.3619 67.3956C93.6422 66.2383 96 63.1087 96 59.4375ZM11.25 90.375C11.25 84.1718 16.2967 79.125 22.5 79.125C28.7033 79.125 33.75 84.1718 33.75 90.375H11.25ZM16.875 67.875C16.875 64.7734 19.3984 62.25 22.5 62.25C25.6016 62.25 28.125 64.7734 28.125 67.875C28.125 70.9766 25.6016 73.5 22.5 73.5C19.3984 73.5 16.875 70.9766 16.875 67.875ZM36.5625 81.0579C35.0631 78.8023 33.0364 76.9268 30.6593 75.6081C32.5725 73.5904 33.75 70.8684 33.75 67.875C33.75 61.6717 28.7033 56.625 22.5 56.625C16.2967 56.625 11.25 61.6717 11.25 67.875C11.25 70.8684 12.4275 73.5904 14.3407 75.6081C9.14812 78.4886 5.625 84.0277 5.625 90.375C5.625 88.3802 5.625 55.2782 5.625 53.8125C5.625 46.0584 11.9334 39.75 19.6875 39.75H54.6707C55.9613 39.75 57.0863 38.8716 57.3992 37.6194L61.9581 19.3813C62.3332 17.8849 63.8497 16.9491 65.3709 17.3336C66.8745 17.7092 67.7919 19.2401 67.4164 20.7454L61.7917 43.2439C61.4781 44.4986 60.3557 45.375 59.0625 45.375H42.1875C40.6343 45.375 39.375 46.6343 39.375 48.1875C39.375 66.8917 39.3278 65.7651 39.4854 66.3167C39.0032 69.7794 40.1387 73.1541 42.4657 75.6081C40.0886 76.9268 38.0617 78.8023 36.5625 81.0579ZM16.875 25.6875C16.875 21.0351 20.6601 17.25 25.3125 17.25C29.9649 17.25 33.75 21.0351 33.75 25.6875C33.75 30.3399 29.9649 34.125 25.3125 34.125C20.6601 34.125 16.875 30.3399 16.875 25.6875ZM39.375 90.375C39.375 84.1718 44.4217 79.125 50.625 79.125C56.8283 79.125 61.875 84.1718 61.875 90.375H39.375ZM45 67.875C45 64.7734 47.5234 62.25 50.625 62.25C53.7266 62.25 56.25 64.7734 56.25 67.875C56.25 70.9766 53.7266 73.5 50.625 73.5C47.5234 73.5 45 70.9766 45 67.875ZM64.6875 81.0579C63.1881 78.8023 61.1614 76.9268 58.7842 75.6081C60.6975 73.5904 61.875 70.8684 61.875 67.875H67.5C67.5 70.8684 68.6775 73.5904 70.5908 75.6081C68.2136 76.9268 66.1868 78.8023 64.6875 81.0579ZM90.375 90.375H67.5C67.5 84.1718 72.5468 79.125 78.75 79.125C85.0513 79.125 90.375 84.2769 90.375 90.375ZM73.125 67.875C73.125 64.7734 75.6484 62.25 78.75 62.25C81.9463 62.25 84.75 64.8786 84.75 67.875C84.75 70.8714 81.9463 73.5 78.75 73.5C75.6484 73.5 73.125 70.9766 73.125 67.875ZM90.375 59.4375C90.375 60.6111 89.652 61.6179 88.6284 62.0389C86.5567 58.8197 82.8621 56.625 78.75 56.625C74.5952 56.625 70.9618 58.8908 69.0135 62.25H60.3615C58.4132 58.8908 54.7798 56.625 50.625 56.625C48.5766 56.625 46.6562 57.1779 45 58.1385V51H59.0625C62.9415 51 66.3081 48.3716 67.2489 44.6083L72.8739 22.1085C74.0006 17.5935 71.2464 13.0033 66.7425 11.8783C62.2331 10.7378 57.6396 13.476 56.5016 18.0154L52.4747 34.125H36.5548C38.3244 31.773 39.375 28.8508 39.375 25.6875C39.375 17.9334 33.0666 11.625 25.3125 11.625C17.5584 11.625 11.25 17.9334 11.25 25.6875C11.25 29.1576 12.516 32.3357 14.607 34.791C11.1471 35.7159 8.06006 37.5619 5.625 40.0492V8.4375C5.625 6.88669 6.88669 5.625 8.4375 5.625H87.5625C89.1133 5.625 90.375 6.88669 90.375 8.4375V59.4375Z" fill="#B6E800"></path> </svg> 